<?xml version="1.0" encoding="UTF-8" standalone="no"?>
<!DOCTYPE svg PUBLIC "-//W3C//DTD SVG 1.1//EN"
 "http://www.w3.org/Graphics/SVG/1.1/DTD/svg11.dtd">
<!-- Generated by graphviz version 2.38.0 (20140413.2041)
 -->
<!-- Title: G Pages: 1 -->
<svg width="162pt" height="419pt"
 viewBox="0.00 0.00 161.62 419.00" xmlns="http://www.w3.org/2000/svg" xmlns:xlink="http://www.w3.org/1999/xlink">
<g id="graph0" class="graph" transform="scale(1 1) rotate(0) translate(4 415)">
<title>G</title>
<polygon fill="white" stroke="none" points="-4,4 -4,-415 157.617,-415 157.617,4 -4,4"/>
<g id="clust1" class="cluster"><title>cluster_Global</title>
<path fill="none" stroke="gray" d="M20,-8C20,-8 133.617,-8 133.617,-8 139.617,-8 145.617,-14 145.617,-20 145.617,-20 145.617,-391 145.617,-391 145.617,-397 139.617,-403 133.617,-403 133.617,-403 20,-403 20,-403 14,-403 8,-397 8,-391 8,-391 8,-20 8,-20 8,-14 14,-8 20,-8"/>
<text text-anchor="middle" x="76.8086" y="-390.2" font-family="Times,serif" font-size="11.00" fill="gray">Global</text>
</g>
<!-- \\Anemometer -->
<g id="node1" class="node"><title>\\Anemometer</title>
<polygon fill="none" stroke="black" points="117.819,-376 35.7979,-376 35.7979,-340 117.819,-340 117.819,-376"/>
<text text-anchor="middle" x="76.8086" y="-354.7" font-family="Courier,monospace" font-size="11.00">Anemometer</text>
</g>
<!-- \\AnemometerModel -->
<g id="node2" class="node"><title>\\AnemometerModel</title>
<polygon fill="none" stroke="black" points="134.325,-322 19.2925,-322 19.2925,-286 134.325,-286 134.325,-322"/>
<text text-anchor="middle" x="76.8086" y="-300.7" font-family="Courier,monospace" font-size="11.00">AnemometerModel</text>
</g>
<!-- \\Loader -->
<g id="node3" class="node"><title>\\Loader</title>
<polygon fill="none" stroke="black" points="104.416,-268 49.2008,-268 49.2008,-232 104.416,-232 104.416,-268"/>
<text text-anchor="middle" x="76.8086" y="-246.7" font-family="Courier,monospace" font-size="11.00">Loader</text>
</g>
<!-- \\MySQLTableReport -->
<g id="node4" class="node"><title>\\MySQLTableReport</title>
<polygon fill="none" stroke="black" points="137.426,-214 16.1908,-214 16.1908,-178 137.426,-178 137.426,-214"/>
<text text-anchor="middle" x="76.8086" y="-192.7" font-family="Courier,monospace" font-size="11.00">MySQLTableReport</text>
</g>
<!-- \\QueryExplain -->
<g id="node5" class="node"><title>\\QueryExplain</title>
<polygon fill="none" stroke="black" points="124.522,-160 29.0955,-160 29.0955,-124 124.522,-124 124.522,-160"/>
<text text-anchor="middle" x="76.8086" y="-138.7" font-family="Courier,monospace" font-size="11.00">QueryExplain</text>
</g>
<!-- \\QueryRewrite -->
<g id="node6" class="node"><title>\\QueryRewrite</title>
<polygon fill="none" stroke="black" points="124.522,-106 29.0955,-106 29.0955,-70 124.522,-70 124.522,-106"/>
<text text-anchor="middle" x="76.8086" y="-84.7" font-family="Courier,monospace" font-size="11.00">QueryRewrite</text>
</g>
<!-- \\QueryTableParser -->
<g id="node7" class="node"><title>\\QueryTableParser</title>
<polygon fill="none" stroke="black" points="137.426,-52 16.1908,-52 16.1908,-16 137.426,-16 137.426,-52"/>
<text text-anchor="middle" x="76.8086" y="-30.7" font-family="Courier,monospace" font-size="11.00">QueryTableParser</text>
</g>
</g>
</svg>
